{
  "accessors": [
    {
      "bufferView": 2,
      "componentType": 5126,
      "count": 448,
      "max": [
        1.8471477031707764,
        0.8686869144439697,
        1.7926228046417236
      ],
      "min": [
        -1.5513620376586914,
        -2.7530925273895264,
        -1.7926220893859863
      ],
      "type": "VEC3"
    },
    {
      "bufferView": 2,
      "byteOffset": 5376,
      "componentType": 5126,
      "count": 448,
      "max": [
        1.0,
        1.0,
        1.0
      ],
      "min": [
        -1.0,
        -1.0,
        -1.0
      ],
      "type": "VEC3"
    },
    {
      "bufferView": 1,
      "componentType": 5126,
      "count": 448,
      "max": [
        1.0000001192092896,
        1.0000001192092896
      ],
      "min": [
        -8.940698137394065e-08,
        0.010000006295740604
      ],
      "type": "VEC2"
    },
    {
      "bufferView": 0,
      "componentType": 5125,
      "count": 1404,
      "type": "SCALAR"
    },
    {
      "bufferView": 2,
      "byteOffset": 10752,
      "componentType": 5126,
      "count": 155,
      "max": [
        0.7520180344581604,
        1.0,
        0.7520180344581604
      ],
      "min": [
        -0.7520180344581604,
        -0.9999998807907104,
        -0.7520180940628052
      ],
      "type": "VEC3"
    },
    {
      "bufferView": 2,
      "byteOffset": 12612,
      "componentType": 5126,
      "count": 155,
      "max": [
        0.9966520667076111,
        1.0,
        0.9966520667076111
      ],
      "min": [
        -0.9966520667076111,
        -0.8678150177001953,
        -0.9966520667076111
      ],
      "type": "VEC3"
    },
    {
      "bufferView": 1,
      "byteOffset": 3584,
      "componentType": 5126,
      "count": 155,
      "max": [
        0.9044017791748047,
        0.4891776442527771
      ],
      "min": [
        0.010822363197803497,
        0.010822374373674393
      ],
      "type": "VEC2"
    },
    {
      "bufferView": 0,
      "byteOffset": 5616,
      "componentType": 5125,
      "count": 378,
      "type": "SCALAR"
    },
    {
      "bufferView": 2,
      "byteOffset": 14472,
      "componentType": 5126,
      "count": 448,
      "max": [
        1.8471477031707764,
        0.8686869144439697,
        1.7926228046417236
      ],
      "min": [
        -1.5513620376586914,
        -2.7530925273895264,
        -1.7926220893859863
      ],
      "type": "VEC3"
    },
    {
      "bufferView": 2,
      "byteOffset": 19848,
      "componentType": 5126,
      "count": 448,
      "max": [
        1.0,
        1.0,
        1.0
      ],
      "min": [
        -1.0,
        -1.0,
        -1.0
      ],
      "type": "VEC3"
    },
    {
      "bufferView": 1,
      "byteOffset": 4824,
      "componentType": 5126,
      "count": 448,
      "max": [
        1.0000001192092896,
        1.0000001192092896
      ],
      "min": [
        -8.940698137394065e-08,
        0.010000006295740604
      ],
      "type": "VEC2"
    },
    {
      "bufferView": 0,
      "byteOffset": 7128,
      "componentType": 5125,
      "count": 1404,
      "type": "SCALAR"
    },
    {
      "bufferView": 2,
      "byteOffset": 25224,
      "componentType": 5126,
      "count": 2672,
      "max": [
        1.7509253025054932,
        1.0043070316314697,
        1.8622329235076904
      ],
      "min": [
        -1.750931739807129,
        -2.780447244644165,
        -1.8622329235076904
      ],
      "type": "VEC3"
    },
    {
      "bufferView": 2,
      "byteOffset": 57288,
      "componentType": 5126,
      "count": 2672,
      "max": [
        0.9993494749069214,
        0.9997729063034058,
        0.9998642206192017
      ],
      "min": [
        -0.9993494749069214,
        -0.9997905492782593,
        -0.9998646974563599
      ],
      "type": "VEC3"
    },
    {
      "bufferView": 1,
      "byteOffset": 8408,
      "componentType": 5126,
      "count": 2672,
      "max": [
        0.9930557012557983,
        1.0000001192092896
      ],
      "min": [
        0.006944355554878712,
        0.013333339244127274
      ],
      "type": "VEC2"
    },
    {
      "bufferView": 0,
      "byteOffset": 12744,
      "componentType": 5125,
      "count": 8928,
      "type": "SCALAR"
    },
    {
      "bufferView": 3,
      "componentType": 5126,
      "count": 61,
      "max": [
        10.416666984558105
      ],
      "min": [
        0.0416666679084301
      ],
      "type": "SCALAR"
    },
    {
      "bufferView": 4,
      "componentType": 5126,
      "count": 61,
      "max": [
        32.462158203125,
        0.06277358531951904,
        -0.0
      ],
      "min": [
        -30.836511611938477,
        0.06277358531951904,
        -0.0
      ],
      "type": "VEC3"
    },
    {
      "bufferView": 3,
      "byteOffset": 244,
      "componentType": 5126,
      "count": 60,
      "max": [
        2.5
      ],
      "min": [
        0.0416666679084301
      ],
      "type": "SCALAR"
    },
    {
      "bufferView": 4,
      "byteOffset": 732,
      "componentType": 5126,
      "count": 60,
      "max": [
        32.462158203125,
        0.06277358531951904,
        -0.0
      ],
      "min": [
        -30.836511611938477,
        0.06277358531951904,
        -0.0
      ],
      "type": "VEC3"
    }
  ],
  "animations": [
    {
      "channels": [
        {
          "sampler": 0,
          "target": {
            "node": 3,
            "path": "translation"
          }
        }
      ],
      "name": "Action",
      "samplers": [
        {
          "input": 16,
          "interpolation": "LINEAR",
          "output": 17
        }
      ]
    },
    {
      "channels": [
        {
          "sampler": 0,
          "target": {
            "node": 3,
            "path": "translation"
          }
        }
      ],
      "name": "Cylinder.002Action",
      "samplers": [
        {
          "input": 18,
          "interpolation": "LINEAR",
          "output": 19
        }
      ]
    }
  ],
  "asset": {
    "extras": {
      "author": "Paradox_studio (https://sketchfab.com/Paradox_studio)",
      "license": "CC-BY-4.0 (http://creativecommons.org/licenses/by/4.0/)",
      "source": "https://sketchfab.com/3d-models/arrow-065de37cfc94481f8307a73c8867db86",
      "title": "Arrow"
    },
    "generator": "Sketchfab-12.67.0",
    "version": "2.0"
  },
  "bufferViews": [
    {
      "buffer": 0,
      "byteLength": 48456,
      "name": "floatBufferViews",
      "target": 34963
    },
    {
      "buffer": 0,
      "byteLength": 29784,
      "byteOffset": 48456,
      "byteStride": 8,
      "name": "floatBufferViews",
      "target": 34962
    },
    {
      "buffer": 0,
      "byteLength": 89352,
      "byteOffset": 78240,
      "byteStride": 12,
      "name": "floatBufferViews",
      "target": 34962
    },
    {
      "buffer": 0,
      "byteLength": 484,
      "byteOffset": 167592,
      "name": "floatBufferViews"
    },
    {
      "buffer": 0,
      "byteLength": 1452,
      "byteOffset": 168076,
      "byteStride": 12,
      "name": "floatBufferViews"
    }
  ],
  "buffers": [
    {
      "byteLength": 169528,
      "uri": "scene.bin"
    }
  ],
  "materials": [
    {
      "doubleSided": true,
      "name": "Material.002",
      "pbrMetallicRoughness": {
        "baseColorFactor": [
          0.8,
          0.588369,
          0.0,
          1.0
        ],
        "roughnessFactor": 0.0
      }
    },
    {
      "doubleSided": true,
      "name": "Material.003",
      "pbrMetallicRoughness": {
        "baseColorFactor": [
          0.214121,
          0.216799,
          0.8,
          1.0
        ],
        "roughnessFactor": 0.0
      }
    }
  ],
  "meshes": [
    {
      "name": "Object_0",
      "primitives": [
        {
          "attributes": {
            "NORMAL": 1,
            "POSITION": 0,
            "TEXCOORD_0": 2
          },
          "indices": 3,
          "material": 0,
          "mode": 4
        }
      ]
    },
    {
      "name": "Object_1",
      "primitives": [
        {
          "attributes": {
            "NORMAL": 5,
            "POSITION": 4,
            "TEXCOORD_0": 6
          },
          "indices": 7,
          "material": 1,
          "mode": 4
        }
      ]
    },
    {
      "name": "Object_2",
      "primitives": [
        {
          "attributes": {
            "NORMAL": 9,
            "POSITION": 8,
            "TEXCOORD_0": 10
          },
          "indices": 11,
          "material": 1,
          "mode": 4
        }
      ]
    },
    {
      "name": "Object_3",
      "primitives": [
        {
          "attributes": {
            "NORMAL": 13,
            "POSITION": 12,
            "TEXCOORD_0": 14
          },
          "indices": 15,
          "material": 0,
          "mode": 4
        }
      ]
    }
  ],
  "nodes": [
    {
      "children": [
        1
      ],
      "matrix": [
        1.0,
        0.0,
        0.0,
        0.0,
        0.0,
        2.220446049250313e-16,
        -1.0,
        0.0,
        0.0,
        1.0,
        2.220446049250313e-16,
        0.0,
        0.0,
        0.0,
        0.0,
        1.0
      ],
      "name": "Sketchfab_model"
    },
    {
      "children": [
        2
      ],
      "name": "root"
    },
    {
      "children": [
        3
      ],
      "matrix": [
        1.0,
        0.0,
        0.0,
        0.0,
        0.0,
        2.220446049250313e-16,
        1.0,
        0.0,
        0.0,
        -1.0,
        2.220446049250313e-16,
        0.0,
        0.0,
        0.0,
        0.0,
        1.0
      ],
      "name": "GLTF_SceneRootNode"
    },
    {
      "children": [
        4,
        5,
        7,
        9
      ],
      "name": "Cylinder.002_3",
      "rotation": [
        0.0,
        0.0,
        -0.7071067690849304,
        0.7071068286895752
      ],
      "scale": [
        0.04476993903517723,
        0.7563037872314453,
        0.04476993903517723
      ],
      "translation": [
        -30.836511611938477,
        0.06277358531951904,
        0.0
      ]
    },
    {
      "mesh": 0,
      "name": "Object_4"
    },
    {
      "children": [
        6
      ],
      "matrix": [
        2.021150827407837,
        0.0,
        0.0,
        0.0,
        0.0,
        0.33081838488578796,
        0.0,
        0.0,
        0.0,
        0.0,
        2.021150827407837,
        0.0,
        -0.020659010857343674,
        0.8289070129394531,
        0.0,
        1.0
      ],
      "name": "Cone_0"
    },
    {
      "mesh": 1,
      "name": "Object_6"
    },
    {
      "children": [
        8
      ],
      "matrix": [
        1.3700177669525146,
        0.0,
        0.0,
        0.0,
        0.0,
        1.3700180053710938,
        0.0,
        0.0,
        0.0,
        0.0,
        1.3700177669525146,
        0.0,
        -0.0022429951932281256,
        -0.9710464477539063,
        0.0,
        1.0
      ],
      "name": "Cylinder_1"
    },
    {
      "mesh": 2,
      "name": "Object_8"
    },
    {
      "children": [
        10
      ],
      "matrix": [
        1.3700177669525146,
        0.0,
        0.0,
        0.0,
        0.0,
        1.3700180053710938,
        0.0,
        0.0,
        0.0,
        0.0,
        1.3700177669525146,
        0.0,
        -0.002242990769445896,
        -0.9675483703613281,
        0.0,
        1.0
      ],
      "name": "Cylinder.001_2"
    },
    {
      "mesh": 3,
      "name": "Object_10"
    }
  ],
  "scene": 0,
  "scenes": [
    {
      "name": "Sketchfab_Scene",
      "nodes": [
        0
      ]
    }
  ]
}
